<svg xmlns="http://www.w3.org/2000/svg" viewBox="0 0 2046.68 2053.56"><defs><style>.cls-1{fill:#fff;}.cls-2{fill:#ff0019;}.cls-3,.cls-4{fill:none;stroke:red;stroke-miterlimit:10;}.cls-3{stroke-width:10.23px;}.cls-4{stroke-width:25.57px;}</style></defs><title>Recurso 1</title><g id="Capa_2" data-name="Capa 2"><g id="Capa_1-2" data-name="Capa 1"><path class="cls-1" d="M83.91,552.27l0-516.48h1880l0,516.48c-92.47,205.91-67.84,261.85-35,373.3s139.62,304.87,41.1,554.27-555.57,319.29-704.54,354.87-241.38,160.05-241.38,160.05S931,1877.72,765.27,1827,271.57,1730,156.8,1599.29-30.46,1231,124.25,946.14C124.25,946.14,214.61,734,83.91,552.27Z"/><path class="cls-1" d="M1025,2053.56l-29-36.51c-.17-.21-22.44-27.75-63.44-60.67-37.39-30-98.59-70.89-177.84-95.14-39.23-12-89.17-24.09-142-36.88-84.56-20.47-180.4-43.66-266.38-74.41-102.91-36.81-173.72-78.37-216.48-127A511.11,511.11,0,0,1,49,1497a545.42,545.42,0,0,1-45-162.26c-7.35-62.38-4.35-126.94,8.94-191.91,14.38-70.28,40.94-141.6,79-212,3.25-8.24,20.87-55.34,25.77-118.76,7-90.88-14.1-171.26-62.75-238.89l-6.74-9.37L48.15,0H1999.71l0,559.94-3.14,7c-82.47,183.64-66.73,236.46-38.15,332.35q2.36,7.91,4.8,16.18c5.11,17.34,12.16,36.94,20.33,59.63,42.6,118.28,107,297,19.72,517.9-22.77,57.63-64.06,110.23-122.73,156.32-48.2,37.87-109.55,72.38-182.33,102.57-130,53.93-271.63,84.39-365.36,104.55-23.08,5-43,9.25-59.1,13.09-69.33,16.56-125.37,55.11-160.18,84.55-38.62,32.66-60.59,61.79-60.81,62.08ZM119.71,541a406,406,0,0,1,60.62,141.81c9.52,43.68,12.36,89.92,8.44,137.45-6.65,80.59-30.57,137.5-31.58,139.88l-.67,1.56-.81,1.49c-180.78,332.91-24.29,552.94,28,612.45,79.43,90.42,282.63,139.6,445.91,179.12,53.93,13.05,104.87,25.38,146.14,38,121.64,37.21,206.09,107.48,247.42,148.3,40.14-42.43,121.82-114.4,234-141.19,16.88-4,37.18-8.4,60.68-13.45,91.2-19.61,229-49.25,353-100.68,142.35-59.05,231.81-132.76,265.9-219.07C2014,1271,1957.51,1114,1916.23,999.36c-8.2-22.78-16-44.29-21.66-63.67q-2.4-8.16-4.73-15.95c-15.5-52-28.88-96.91-25.83-155.27,3.08-58.84,22.91-126.87,64.14-219.82l0-473.05H119.74Z"/><path d="M1028,2035.41l-24.82-31.29c-.18-.23-22.39-27.72-63.3-60.6-37.37-30-98.55-70.92-177.81-95.17-39-11.92-88.45-23.9-140.84-36.58-83.57-20.23-178.29-43.15-263.15-73.5-101.07-36.15-170.5-76.84-212.27-124.39a501.1,501.1,0,0,1-79.36-123.45,535,535,0,0,1-44.18-159.17C15.09,1270,18,1206.63,31.09,1142.84c14.15-69.18,40.33-139.4,77.82-208.75,3.08-7.76,20.93-55,25.9-118.86,7.11-91.22-14.07-171.92-63-239.88l-5.78-8,0-551.71H1988l0,548.4-2.69,6c-82.34,183.35-66.59,236.23-38,332.21q2.33,7.82,4.75,16c5.09,17.3,12.1,36.76,20.21,59.29,41.91,116.38,105.26,292.27,19.56,509.2-22.22,56.25-62.59,107.63-120,152.72-47.37,37.21-107.7,71.15-179.33,100.86-128.24,53.2-268.17,83.3-360.77,103.21-22.87,4.92-42.61,9.16-58.6,13-69.62,16.63-125.81,55.31-160.69,84.83-38.57,32.65-60.5,61.76-60.72,62ZM127.45,547.76a397,397,0,0,1,60.1,139.9c9.32,42.76,12.1,88.06,8.26,134.62-6.52,79-29.9,134.64-30.89,137l-.57,1.34-.69,1.28c-180.38,332.17-23.94,552,28.3,611.51,79.6,90.62,281.51,139.48,443.75,178.75,53.3,12.9,103.65,25.08,144.36,37.54,123,37.64,207.25,109.65,246.37,149,38-40.95,119.43-114.9,232.56-141.92,16.66-4,36.72-8.29,59.95-13.29,90.42-19.45,227.07-48.83,350.16-99.9,142.11-59,231.52-132.79,265.75-219.45,77.18-195.38,20.88-351.71-20.22-465.86-8.09-22.47-15.74-43.7-21.34-62.75q-2.38-8.09-4.69-15.8c-15.21-51-28.35-95.13-25.37-152.06,3-57.82,22.65-124.88,63.48-216.79l0-473.92H127.48Z"/><rect x="106.18" y="502.76" width="1846.86" height="62.09"/><path d="M1029.61,677.58c-233,0-422.63,189.6-422.63,422.64s189.59,422.61,422.63,422.61,422.63-189.59,422.63-422.61S1262.65,677.58,1029.61,677.58Zm0,840.09c-230.18,0-417.45-187.26-417.45-417.44s187.27-417.47,417.45-417.47S1447.06,870,1447.06,1100.22,1259.8,1517.67,1029.61,1517.67Z"/><path d="M103.59,530.61v3.92l.37.61c.28.46,28.14,46.93,35.81,63.06,5.35,11.22,13.83,35.32,17.87,48.06,3.56,11.2,8.75,33.13,10.67,43.83,3.66,20.37,7.18,61.33,7.65,81.66.28,12.33-2.08,38.18-2.56,43.24-1.32,14-5.6,43.62-9.33,58.21-2.67,10.46-9.8,28.83-15,42.25-1.37,3.53-2.61,6.73-3.62,9.39-2.16,5.69-5.42,13.93-8.76,22.39-4,10.21-8.22,20.76-10.77,27.64-9.18,24.76-26.92,76.94-32.14,92.35-6.05,17.86-17.71,53.74-22.94,71.88-3.68,12.78-10.13,39.16-12.59,52.75-3.87,21.45-8,64.44-9.6,86.75-.79,11.26-1,32.37,0,42.72,1.72,18.23,10.14,53.84,15.37,73.31,4.2,15.59,15.57,47.42,22.54,63.06,10.08,22.64,34.51,63.81,48,82.79,11.56,16.25,39,45.45,54.35,60.28,14.62,14.12,45.54,38.23,61.41,48.79,7.47,5,20.16,12.06,35.7,20l3.76,1.92V530.61Z"/><path d="M2010.81,1235.05c-2.41-21-11.1-63.57-16.7-84.79-3.13-11.91-10.54-35.71-14.81-48.81-5.88-18.05-17.83-53.91-23.86-71.37-4.11-11.94-14.26-41.29-19.67-55.82-2.59-7-6.47-16.61-10.57-26.79C1919,932.15,1912,914.79,1908.48,904c-5.53-16.84-15-49.54-17.61-66.23-2.61-16.29-5.43-49.64-5.05-66.63.46-20.81,3.6-61.92,7.63-81.6,4-19.52,15.65-59.11,23.12-78.45,4.24-11,13.73-32.08,18.79-41.81,4.58-8.79,19.76-34.51,19.9-34.75l2.34-3.92h-187V1671.43l3.76-1.91c15.49-7.88,28.3-14.91,36.06-19.81,17.16-10.82,47.36-31.68,60.85-44.17,11-10.16,30.55-33,39.79-44.9,7.61-9.81,26.17-34,34.07-47,9.76-16,27.24-49.23,34.31-66.37,5.35-13,14.82-39.5,18.14-53.3,4.69-19.45,12.41-61.45,13.85-83C2012.64,1292.82,2013,1254.23,2010.81,1235.05Z"/><path d="M714.6,827.14V527H496.75V1739.66l3,.85c26.46,7.25,79.7,21.19,107.35,28.33,21.59,5.56,65.2,16.44,88.29,22.08,4.64,1.13,10.1,2.46,16,3.89l3.19.76V1373.27l-.63-.72a417,417,0,0,1,0-544.68Z"/><path d="M921.55,527.65V697l3.24-.84a421.74,421.74,0,0,1,210.82,0l3.24.84V527.65Z"/><path d="M924.79,1504.21l-3.24-.84V1864.7l1.31.74c24,13.54,45,27.31,56.16,36.78,13.95,11.85,48.17,56.22,48.51,56.67l1.9,2.47,2.08-2.33c.46-.51,46.36-51.77,64.16-65.66,8.74-6.83,24-16.53,41.85-26.61l1.31-.75V1503.37l-3.24.84A421.74,421.74,0,0,1,924.79,1504.21Z"/><path d="M1345.81,527.64v299.5l.62.73a417,417,0,0,1,0,544.68l-.62.72V1795l6.46-1.59c12.08-3,24.17-6,32.21-8,15.22-3.8,45.67-11.42,60.86-15.31,14.6-3.74,43.77-11.31,58.32-15.17,14.1-3.73,39.09-10.41,58.06-15.57l1.91-.52V527.64Z"/><path d="M1320.09,1243.61c-55.91,112.22-168.23,181.93-293.13,181.93-180.47,0-327.3-146.83-327.3-327.3S846.49,770.93,1027,770.93c124.91,0,237.23,69.72,293.13,181.94l7.14,14.34h78L1388,930.4C1322.67,790.43,1181,700,1027,700c-219.59,0-398.24,178.66-398.24,398.25S807.37,1496.49,1027,1496.49c154,0,295.71-90.44,361-230.4l17.18-36.82h-78Z"/><path class="cls-2" d="M396.46,361.29q0,35-12.3,51.79t-43.52,16.82H180.13l-7.71-57.1,15.79,8q7.71,2.66,19.1,2.66h85.94q10.28,0,13.41-2.21T309.78,371V352q0-7.08-3.12-9.74t-13.41-2.66H220.9q-27.18,0-38.2-12.84Q172,313.05,172.05,279V216.1q0-33.63,12.3-50.46t36.54-16.82H386.18l7.71,55.77L377,198q-7.71-2.66-19.1-2.66H274.52q-10.29,0-13.59,2.21t-3.31,10.18v16.38q0,7.53,3.49,10t13.41,2.43h63.54q28.28,0,43.34,13.5t15.06,42.72Z"/><path class="cls-2" d="M706.44,429.91H589.64l4-10.62,1.1-8a67,67,0,0,0-3.31-20.8l-13.22-35.85H476.15l-15.79,38.51A43.46,43.46,0,0,0,457.06,410q0,7.53.73,9.74l4.41,10.18H396.46l15.79-25.67L422.9,379l84.84-214.25-10.28-15.94H603.23L609.48,167l76,224A141.52,141.52,0,0,0,706.44,429.91ZM562.83,308.17l-33-94.46L494.1,308.15Z"/><path class="cls-2" d="M967.94,148.82q-1.84,3.55-4,9.09a94.86,94.86,0,0,0-3.31,9.53q-.74,5.32-1.1,12t-.37,20V429.91H843.43l-3.67-8.42L747.94,197.07h-1.1V379.44q0,24.35,1.47,31.87,1.1,8.86,7.35,18.59H699.83q5.51-9.73,6.61-16.6a131.21,131.21,0,0,0,1.47-13.5q.36-6.64.37-20.36V194q0-19-1.47-26.12-1.1-8.85-7-19H824.34l2.2,4.89,92.55,224.85h1.47V193.61q0-19.5-1.47-26.17-1.1-8.86-7.35-18.63Z"/><path class="cls-2" d="M1204.1,206.81l-14.69-8.41a44.5,44.5,0,0,0-7.71-2.21,55.17,55.17,0,0,0-10.65-.89h-41.13v201a77.15,77.15,0,0,0,1.65,14.61,118.6,118.6,0,0,0,5.69,19H1034.05a157.37,157.37,0,0,0,5.51-19.48,193.23,193.23,0,0,0,1.84-28.77V195.3H1001q-12.86,0-17.81,2t-15.24,9.52l7.35-58h221.1Z"/><path class="cls-2" d="M1498.65,429.91H1381.86l4-10.62,1.1-8a67,67,0,0,0-3.31-20.8l-13.22-35.85h-102.1l-15.79,38.51a43.46,43.46,0,0,0-3.31,16.82q0,7.53.73,9.74l4.41,10.18h-65.74l15.79-25.67L1215.11,379,1300,164.75l-10.28-15.94h105.78l6.24,18.15,76,224A141.52,141.52,0,0,0,1498.65,429.91ZM1355,308.17l-33-94.46-35.77,94.44Z"/><path class="cls-2" d="M1760.16,148.82q-1.84,3.55-4,9.09a94.86,94.86,0,0,0-3.31,9.53q-.74,5.32-1.1,12t-.37,20V429.91H1635.65l-3.67-8.42-91.82-224.41h-1.1V379.44q0,24.35,1.47,31.87,1.1,8.86,7.35,18.59H1492q5.51-9.73,6.61-16.6a131.21,131.21,0,0,0,1.47-13.5q.36-6.64.37-20.36V194q0-19-1.47-26.12-1.1-8.85-7-19h124.51l2.2,4.89,92.55,224.85h1.47V193.61q0-19.5-1.47-26.17-1.1-8.86-7.35-18.63Z"/><path class="cls-2" d="M1882.09,429.91H1778.89a157.2,157.2,0,0,0,5.51-19.48,193.09,193.09,0,0,0,1.84-28.77V197.07q0-9.3-.37-16.38a72.4,72.4,0,0,0-1.47-12,75.54,75.54,0,0,0-5.51-19.92h103.21a115.91,115.91,0,0,0-5.51,19.48l-1.47,28.77V396a95,95,0,0,0,7,33.86Z"/><path class="cls-2" d="M1241.82,1120q-24.29-34.2-67.28-53.93t-132.68-38.18q-89.7-18.46-113-35.47Q910.61,979,910.62,960.17q0-20.63,19.52-32.93,30.32-19.18,83.89-19.18,51.91,0,77.87,17.92t33.85,58.82l122.92-4.7q-2.9-73.12-60.84-116.9t-172.55-43.8q-70.19,0-119.81,18.46t-76,53.75q-26.37,35.29-26.37,75.83,0,63,56.06,106.77,39.86,31.12,138.71,52.48,76.82,16.64,98.43,23.16,31.56,9.78,44.23,23t12.67,32q0,29.31-30.11,51.21t-89.5,21.9q-56.07,0-89.08-24.62t-43.82-77.09l-119.6,10.13q12,89,73.92,135.55t177.33,46.5q79.31,0,132.47-19.36t82.23-59.17q29.06-39.81,29.08-85.42Q1266.11,1154.17,1241.82,1120Z"/><path d="M1163.21,1032.85a115,115,0,0,0-29.51-43.45q-19.4-17.74-46.59-24.69-20.24-5.12-58.81-5.13h-114v268.16h117.42q34.57,0,55.23-5.66,27.61-7.69,43.85-21.41,21.51-18.1,33.1-47.37,9.49-24,9.49-57.07Q1173.33,1058.54,1163.21,1032.85ZM1102.5,1143q-6.32,18-16.34,25.89T1061,1180q-11.6,2.56-37.73,2.56H976.65V1004.95h28q38.16,0,51.23,2.56,17.49,3.29,28.88,12.62t17.71,26q6.33,16.64,6.32,47.74T1102.5,1143Z"/><path class="cls-3" d="M1027.21,2020.22"/><path class="cls-4" d="M1027.21,2020.22"/><path class="cls-4" d="M1027.23,1985"/></g></g></svg>